G04 Layer_Physical_Order=2*
G04 Layer_Color=255*
%FSLAX25Y25*%
%MOIN*%
G70*
G01*
G75*
%ADD10O,0.07874X0.16535*%
%ADD14R,0.02756X0.03150*%
%ADD15R,0.03150X0.02756*%
%ADD20C,0.01000*%
%ADD21C,0.11811*%
%ADD22C,0.01968*%
%ADD23R,0.07874X0.02362*%
%ADD24O,0.07874X0.02362*%
%ADD25R,0.02362X0.03543*%
%ADD26R,0.03937X0.01968*%
%ADD27O,0.15748X0.07874*%
%ADD28R,0.15748X0.07874*%
G36*
X37636Y45882D02*
X37908Y45739D01*
Y42496D01*
X35175Y39762D01*
X34977Y39467D01*
X34908Y39118D01*
Y36333D01*
X34408Y36024D01*
X34319Y36042D01*
Y34118D01*
X33319D01*
Y36362D01*
X33161Y36520D01*
X33180Y36618D01*
X33058Y37233D01*
X32710Y37753D01*
X32189Y38102D01*
X31575Y38224D01*
X26063D01*
X25449Y38102D01*
X24928Y37753D01*
X24778Y37529D01*
X24293D01*
Y40532D01*
X24793Y40684D01*
X24928Y40483D01*
X25449Y40135D01*
X26063Y40012D01*
X31575D01*
X32189Y40135D01*
X32710Y40483D01*
X33058Y41004D01*
X33180Y41618D01*
X33168Y41679D01*
X37408Y45918D01*
X37636Y45882D01*
D02*
G37*
G36*
X30320Y50688D02*
X30362Y50115D01*
X30314Y50083D01*
X30094Y49752D01*
X30016Y49362D01*
Y48878D01*
X33004D01*
Y47878D01*
X30016D01*
Y47394D01*
X30094Y47003D01*
X30314Y46673D01*
X30645Y46452D01*
X30740Y46303D01*
X33004D01*
Y45303D01*
X31080D01*
X31135Y45029D01*
X31573Y44373D01*
X32175Y43970D01*
X32283Y43757D01*
X32373Y43461D01*
X32043Y43131D01*
X31575Y43224D01*
X26063D01*
X25449Y43102D01*
X24928Y42753D01*
X24793Y42552D01*
X24293Y42704D01*
Y45048D01*
X26803Y47558D01*
X28894D01*
X29195Y47683D01*
X29320Y47984D01*
Y49830D01*
X30224Y50734D01*
X30320Y50688D01*
D02*
G37*
G36*
X20636Y44382D02*
X20908Y44239D01*
Y37495D01*
X19675Y36262D01*
X19477Y35967D01*
X19408Y35618D01*
Y34166D01*
X19326Y34112D01*
X19021Y33656D01*
X18914Y33118D01*
X19021Y32581D01*
X19326Y32125D01*
X19781Y31820D01*
X19985Y31780D01*
X20149Y31237D01*
X18441Y29529D01*
X17504D01*
X17475Y29749D01*
X17039Y30802D01*
X16345Y31707D01*
X15440Y32401D01*
X14386Y32837D01*
X13256Y32986D01*
X5382D01*
X4251Y32837D01*
X3198Y32401D01*
X2293Y31707D01*
X1599Y30802D01*
X1163Y29749D01*
X1108Y29331D01*
X608Y29364D01*
Y37872D01*
X1108Y37905D01*
X1163Y37488D01*
X1599Y36434D01*
X2293Y35529D01*
X3198Y34835D01*
X4251Y34399D01*
X5382Y34250D01*
X13256D01*
X14386Y34399D01*
X15440Y34835D01*
X16345Y35529D01*
X17039Y36434D01*
X17475Y37488D01*
X17624Y38618D01*
X17475Y39749D01*
X17039Y40802D01*
X16931Y40942D01*
X20408Y44418D01*
X20636Y44382D01*
D02*
G37*
G36*
X34908Y31904D02*
Y30996D01*
X32138Y28225D01*
X24882D01*
X24581Y28100D01*
X24456Y27799D01*
Y25437D01*
X24581Y25136D01*
X24882Y25011D01*
X32716D01*
X32806Y24905D01*
X32971Y24559D01*
X31942Y23529D01*
X28867D01*
X28812Y23612D01*
X28357Y23916D01*
X27819Y24023D01*
X27281Y23916D01*
X26825Y23612D01*
X26521Y23156D01*
X26414Y22618D01*
X26521Y22081D01*
X26825Y21625D01*
X27281Y21320D01*
X27819Y21213D01*
X28357Y21320D01*
X28812Y21625D01*
X28867Y21707D01*
X32319D01*
X32435Y21730D01*
X32681Y21269D01*
X28896Y17483D01*
X28402Y17688D01*
X27272Y17837D01*
X26141Y17688D01*
X25088Y17251D01*
X24183Y16557D01*
X23489Y15653D01*
X23052Y14599D01*
X22904Y13468D01*
Y4807D01*
X23052Y3677D01*
X23489Y2623D01*
X24183Y1718D01*
X24938Y1139D01*
X24768Y639D01*
X18870D01*
X18700Y1139D01*
X19455Y1718D01*
X20149Y2623D01*
X20585Y3677D01*
X20734Y4807D01*
Y13468D01*
X20585Y14599D01*
X20149Y15653D01*
X19455Y16557D01*
X18550Y17251D01*
X17497Y17688D01*
X16366Y17837D01*
X15236Y17688D01*
X14182Y17251D01*
X13277Y16557D01*
X12583Y15653D01*
X12147Y14599D01*
X11998Y13468D01*
Y4807D01*
X12147Y3677D01*
X12583Y2623D01*
X13277Y1718D01*
X14032Y1139D01*
X13862Y639D01*
X608D01*
Y27872D01*
X1108Y27905D01*
X1163Y27488D01*
X1599Y26434D01*
X2293Y25529D01*
X3198Y24835D01*
X4251Y24399D01*
X5382Y24250D01*
X13256D01*
X14386Y24399D01*
X15440Y24835D01*
X16345Y25529D01*
X17039Y26434D01*
X17475Y27488D01*
X17504Y27707D01*
X18819D01*
X19168Y27776D01*
X19463Y27974D01*
X23384Y31895D01*
X23845Y31649D01*
X23839Y31618D01*
X24008Y30767D01*
X24490Y30046D01*
X25212Y29564D01*
X26063Y29394D01*
X28319D01*
Y31618D01*
X28819D01*
Y32118D01*
X34160D01*
X34199Y32171D01*
X34408Y32212D01*
X34908Y31904D01*
D02*
G37*
G36*
X20636Y51882D02*
X20908Y51739D01*
Y50495D01*
X19175Y48762D01*
X18977Y48467D01*
X18908Y48118D01*
Y45496D01*
X15651Y42239D01*
X15440Y42401D01*
X14386Y42837D01*
X13256Y42986D01*
X5382D01*
X4251Y42837D01*
X3198Y42401D01*
X2293Y41707D01*
X1599Y40802D01*
X1163Y39749D01*
X1108Y39331D01*
X608Y39364D01*
Y47872D01*
X1108Y47905D01*
X1163Y47488D01*
X1599Y46434D01*
X2293Y45529D01*
X3198Y44835D01*
X4251Y44399D01*
X5382Y44250D01*
X13256D01*
X14386Y44399D01*
X15440Y44835D01*
X16345Y45529D01*
X17039Y46434D01*
X17475Y47488D01*
X17624Y48618D01*
X17564Y49075D01*
X20408Y51918D01*
X20636Y51882D01*
D02*
G37*
G36*
X63699Y91667D02*
X57779D01*
X57552Y91748D01*
X55167Y91629D01*
X55113Y91603D01*
X55054Y91613D01*
X52728Y91071D01*
X52680Y91036D01*
X52620Y91035D01*
X50428Y90088D01*
X50386Y90046D01*
X50327Y90034D01*
X48338Y88712D01*
X48305Y88662D01*
X48249Y88641D01*
X46528Y86986D01*
X46504Y86931D01*
X46453Y86900D01*
X45053Y84965D01*
X45039Y84907D01*
X44995Y84866D01*
X43962Y82714D01*
X43958Y82654D01*
X43922Y82607D01*
X43288Y80304D01*
X43296Y80244D01*
X43268Y80191D01*
X43055Y77813D01*
X43073Y77756D01*
X43055Y77699D01*
X43268Y75320D01*
X43296Y75267D01*
X43288Y75208D01*
X43922Y72905D01*
X43958Y72858D01*
X43962Y72798D01*
X44995Y70645D01*
X45039Y70605D01*
X45053Y70547D01*
X46453Y68612D01*
X46504Y68581D01*
X46528Y68526D01*
X48249Y66871D01*
X48305Y66849D01*
X48338Y66800D01*
X50327Y65478D01*
X50386Y65466D01*
X50428Y65423D01*
X52620Y64476D01*
X52680Y64476D01*
X52728Y64441D01*
X55054Y63899D01*
X55113Y63909D01*
X55167Y63883D01*
X57552Y63764D01*
X57569Y63770D01*
X57584Y63763D01*
X63699D01*
Y39140D01*
X63258Y38905D01*
X63176Y38960D01*
X62902Y39014D01*
Y37091D01*
Y35167D01*
X63176Y35221D01*
X63258Y35277D01*
X63699Y35041D01*
Y639D01*
X51586D01*
X51417Y1139D01*
X52171Y1718D01*
X52865Y2623D01*
X53302Y3677D01*
X53451Y4807D01*
Y13468D01*
X53302Y14599D01*
X52865Y15653D01*
X52171Y16557D01*
X51267Y17251D01*
X50213Y17688D01*
X49083Y17837D01*
X47952Y17688D01*
X46899Y17251D01*
X45994Y16557D01*
X45300Y15653D01*
X44863Y14599D01*
X44715Y13468D01*
Y4807D01*
X44863Y3677D01*
X45300Y2623D01*
X45994Y1718D01*
X46749Y1139D01*
X46579Y639D01*
X40681D01*
X40511Y1139D01*
X41266Y1718D01*
X41960Y2623D01*
X42396Y3677D01*
X42545Y4807D01*
Y13468D01*
X42396Y14599D01*
X41960Y15653D01*
X41266Y16557D01*
X40361Y17251D01*
X39308Y17688D01*
X38177Y17837D01*
X37047Y17688D01*
X35993Y17251D01*
X35089Y16557D01*
X34394Y15653D01*
X33958Y14599D01*
X33809Y13468D01*
Y4807D01*
X33958Y3677D01*
X34394Y2623D01*
X35089Y1718D01*
X35843Y1139D01*
X35674Y639D01*
X29775D01*
X29605Y1139D01*
X30360Y1718D01*
X31054Y2623D01*
X31491Y3677D01*
X31640Y4807D01*
Y13468D01*
X31491Y14599D01*
X31054Y15653D01*
X30441Y16452D01*
X40478Y26488D01*
X40939Y26242D01*
X40914Y26118D01*
X41021Y25580D01*
X41326Y25125D01*
X41781Y24820D01*
X42319Y24713D01*
X42856Y24820D01*
X43312Y25125D01*
X43367Y25207D01*
X44819D01*
X45168Y25276D01*
X45463Y25474D01*
X45588Y25599D01*
X46136Y25560D01*
X46187Y25483D01*
X46708Y25135D01*
X47323Y25012D01*
X52835D01*
X53449Y25135D01*
X53970Y25483D01*
X54010Y25542D01*
X54566Y25582D01*
X55419Y24730D01*
X55714Y24532D01*
X56063Y24463D01*
X56818D01*
Y23996D01*
X56943Y23695D01*
X57244Y23570D01*
X60394D01*
X60695Y23695D01*
X60820Y23996D01*
Y26752D01*
X60695Y27053D01*
X60394Y27178D01*
X57244D01*
X56943Y27053D01*
X56818Y26752D01*
Y26581D01*
X56318Y26408D01*
X55463Y27262D01*
X55168Y27460D01*
X54819Y27529D01*
X54120D01*
X53970Y27753D01*
X53449Y28102D01*
X52835Y28224D01*
X47323D01*
X46708Y28102D01*
X46187Y27753D01*
X46038Y27529D01*
X45319D01*
X44970Y27460D01*
X44675Y27262D01*
X44442Y27029D01*
X43367D01*
X43312Y27112D01*
X42856Y27416D01*
X42319Y27523D01*
X42195Y27498D01*
X41949Y27959D01*
X44696Y30707D01*
X46038D01*
X46187Y30483D01*
X46708Y30135D01*
X47323Y30013D01*
X52835D01*
X53449Y30135D01*
X53970Y30483D01*
X54120Y30707D01*
X56818D01*
Y29984D01*
X56943Y29683D01*
X57244Y29558D01*
X60394D01*
X60695Y29683D01*
X60820Y29984D01*
Y32740D01*
X60695Y33042D01*
X60394Y33166D01*
X57244D01*
X56943Y33042D01*
X56818Y32740D01*
Y32529D01*
X54120D01*
X53970Y32754D01*
X53449Y33101D01*
X52835Y33224D01*
X47323D01*
X46708Y33101D01*
X46187Y32754D01*
X46038Y32529D01*
X44319D01*
X44203Y32506D01*
X43957Y32967D01*
X46358Y35369D01*
X46708Y35135D01*
X47323Y35013D01*
X52835D01*
X53449Y35135D01*
X53970Y35483D01*
X54291Y35963D01*
X56818D01*
Y35496D01*
X56943Y35195D01*
X57244Y35070D01*
X60394D01*
X60695Y35195D01*
X60711Y35233D01*
X61264Y35446D01*
X61297Y35442D01*
X61627Y35221D01*
X61902Y35167D01*
Y37091D01*
Y39014D01*
X61627Y38960D01*
X61189Y38667D01*
X60695Y38553D01*
X60394Y38678D01*
X57244D01*
X56943Y38553D01*
X56818Y38252D01*
Y37785D01*
X53922D01*
X53449Y38102D01*
X52835Y38224D01*
X47323D01*
X46708Y38102D01*
X46187Y37753D01*
X45995Y37465D01*
X45970Y37460D01*
X45675Y37262D01*
X41993Y33581D01*
X41923Y33618D01*
X40067D01*
Y31762D01*
X40104Y31692D01*
X33634Y25222D01*
X33288Y25387D01*
X33182Y25477D01*
Y26693D01*
X36463Y29974D01*
X36661Y30269D01*
X36730Y30618D01*
Y38741D01*
X39463Y41474D01*
X39661Y41769D01*
X39730Y42118D01*
Y58118D01*
X39661Y58467D01*
X39463Y58762D01*
X34463Y63762D01*
X34168Y63960D01*
X33819Y64029D01*
X31367D01*
X31312Y64112D01*
X30856Y64416D01*
X30319Y64523D01*
X29781Y64416D01*
X29326Y64112D01*
X29021Y63656D01*
X28914Y63118D01*
X29021Y62581D01*
X29326Y62125D01*
X29781Y61820D01*
X30319Y61713D01*
X30856Y61820D01*
X30930Y61869D01*
X31290Y61509D01*
X31241Y61435D01*
X31134Y60898D01*
X31241Y60360D01*
X31546Y59904D01*
X32002Y59600D01*
X32539Y59493D01*
X32636Y59512D01*
X34418Y57731D01*
X34226Y57269D01*
X31957D01*
X30463Y58762D01*
X30168Y58960D01*
X29819Y59029D01*
X24867D01*
X24812Y59112D01*
X24356Y59416D01*
X24153Y59457D01*
X23989Y59999D01*
X26707Y62718D01*
X26905Y63013D01*
X26974Y63362D01*
Y66617D01*
X27441D01*
X27742Y66742D01*
X27867Y67043D01*
Y69134D01*
X31626Y72893D01*
X33740D01*
X34042Y73018D01*
X34166Y73319D01*
Y76862D01*
X34042Y77163D01*
X33740Y77288D01*
X31485D01*
X31286Y77595D01*
X31240Y77750D01*
X31696Y78207D01*
X37063D01*
X37412Y78276D01*
X37707Y78474D01*
X38803Y79570D01*
X40894D01*
X41195Y79695D01*
X41320Y79996D01*
Y82752D01*
X41195Y83053D01*
X40894Y83178D01*
X37744D01*
X37443Y83053D01*
X37318Y82752D01*
Y80662D01*
X36686Y80029D01*
X31319D01*
X30970Y79960D01*
X30675Y79762D01*
X27186Y76274D01*
X26686Y76481D01*
Y76862D01*
X26561Y77163D01*
X26260Y77288D01*
X23898D01*
X23596Y77163D01*
X23471Y76862D01*
Y73319D01*
X23596Y73018D01*
X23686Y72981D01*
X23837Y72453D01*
X23832Y72420D01*
X22675Y71262D01*
X22477Y70967D01*
X22408Y70618D01*
Y63995D01*
X19175Y60762D01*
X18977Y60467D01*
X18908Y60118D01*
Y52996D01*
X17166Y51254D01*
X16667Y51287D01*
X16345Y51707D01*
X15440Y52401D01*
X14386Y52837D01*
X13256Y52986D01*
X5382D01*
X4251Y52837D01*
X3198Y52401D01*
X2293Y51707D01*
X1599Y50802D01*
X1163Y49749D01*
X1108Y49331D01*
X608Y49364D01*
Y53436D01*
X1006Y53706D01*
X1108Y53729D01*
X1445Y53662D01*
X8819D01*
Y58618D01*
X9319D01*
Y59118D01*
X18213D01*
Y62555D01*
X18135Y62945D01*
X17914Y63276D01*
X17583Y63497D01*
X17193Y63575D01*
X10065D01*
X10007Y64075D01*
X11579Y64441D01*
X11627Y64476D01*
X11687Y64476D01*
X13880Y65423D01*
X13921Y65466D01*
X13980Y65478D01*
X15969Y66800D01*
X16002Y66849D01*
X16058Y66871D01*
X17779Y68526D01*
X17804Y68581D01*
X17854Y68612D01*
X19254Y70547D01*
X19268Y70605D01*
X19312Y70645D01*
X20346Y72798D01*
X20349Y72858D01*
X20385Y72905D01*
X21019Y75208D01*
X21011Y75267D01*
X21039Y75320D01*
X21252Y77699D01*
X21235Y77756D01*
X21252Y77813D01*
X21039Y80191D01*
X21011Y80244D01*
X21019Y80304D01*
X20385Y82607D01*
X20349Y82654D01*
X20346Y82714D01*
X19312Y84866D01*
X19268Y84907D01*
X19254Y84965D01*
X17854Y86900D01*
X17804Y86931D01*
X17779Y86986D01*
X16058Y88641D01*
X16002Y88662D01*
X15969Y88712D01*
X13980Y90034D01*
X13921Y90046D01*
X13880Y90088D01*
X11687Y91035D01*
X11627Y91036D01*
X11579Y91071D01*
X9093Y91650D01*
X9018Y91638D01*
X8948Y91667D01*
X608D01*
Y104479D01*
X63699D01*
Y91667D01*
D02*
G37*
%LPC*%
G36*
X5243Y16618D02*
X1395D01*
X1450Y16344D01*
X1888Y15687D01*
X2303Y15410D01*
Y14826D01*
X1888Y14549D01*
X1450Y13892D01*
X1395Y13618D01*
X5243D01*
X5188Y13892D01*
X4750Y14549D01*
X4334Y14826D01*
Y15410D01*
X4750Y15687D01*
X5188Y16344D01*
X5243Y16618D01*
D02*
G37*
G36*
X2819Y19042D02*
X2545Y18987D01*
X1888Y18549D01*
X1450Y17892D01*
X1395Y17618D01*
X2819D01*
Y19042D01*
D02*
G37*
G36*
Y12618D02*
X1395D01*
X1450Y12344D01*
X1888Y11688D01*
X2545Y11249D01*
X2819Y11195D01*
Y12618D01*
D02*
G37*
G36*
X5243D02*
X3819D01*
Y11195D01*
X4093Y11249D01*
X4750Y11688D01*
X5188Y12344D01*
X5243Y12618D01*
D02*
G37*
G36*
X33699Y31118D02*
X29319D01*
Y29394D01*
X31575D01*
X32426Y29564D01*
X33147Y30046D01*
X33629Y30767D01*
X33699Y31118D01*
D02*
G37*
G36*
X3819Y19042D02*
Y17618D01*
X5243D01*
X5188Y17892D01*
X4750Y18549D01*
X4093Y18987D01*
X3819Y19042D01*
D02*
G37*
G36*
X39067Y36042D02*
X38793Y35987D01*
X38136Y35549D01*
X37698Y34892D01*
X37643Y34618D01*
X39067D01*
Y36042D01*
D02*
G37*
G36*
X60394Y50772D02*
X59319D01*
Y48874D01*
X61413D01*
Y49752D01*
X61336Y50142D01*
X61115Y50473D01*
X60784Y50694D01*
X60394Y50772D01*
D02*
G37*
G36*
X40067Y36042D02*
Y34618D01*
X41491D01*
X41436Y34892D01*
X40997Y35549D01*
X40341Y35987D01*
X40067Y36042D01*
D02*
G37*
G36*
X45743Y51618D02*
X41895D01*
X41950Y51344D01*
X42388Y50687D01*
X42587Y50555D01*
X42687Y49887D01*
X42606Y49788D01*
X41665D01*
X41364Y49663D01*
X41239Y49362D01*
Y47394D01*
X41364Y47092D01*
X41665Y46968D01*
X45602D01*
X45904Y47092D01*
X46029Y47394D01*
Y49362D01*
X45904Y49663D01*
X45602Y49788D01*
X45031D01*
X44951Y49887D01*
X45051Y50555D01*
X45250Y50687D01*
X45688Y51344D01*
X45743Y51618D01*
D02*
G37*
G36*
X61413Y47874D02*
X59319D01*
Y45976D01*
X60394D01*
X60784Y46054D01*
X61115Y46275D01*
X61336Y46606D01*
X61413Y46996D01*
Y47874D01*
D02*
G37*
G36*
X39067Y33618D02*
X37643D01*
X37698Y33344D01*
X38136Y32688D01*
X38793Y32249D01*
X39067Y32195D01*
Y33618D01*
D02*
G37*
G36*
X48819Y24055D02*
X48281Y23948D01*
X47826Y23643D01*
X47521Y23187D01*
X47414Y22650D01*
X47521Y22112D01*
X47826Y21656D01*
X48281Y21352D01*
X48819Y21245D01*
X49356Y21352D01*
X49812Y21656D01*
X49867Y21738D01*
X51910D01*
X54431Y19218D01*
X54726Y19020D01*
X55075Y18951D01*
X56818D01*
Y18484D01*
X56943Y18183D01*
X57244Y18058D01*
X60394D01*
X60695Y18183D01*
X60820Y18484D01*
Y21240D01*
X60695Y21542D01*
X60394Y21666D01*
X57244D01*
X56943Y21542D01*
X56818Y21240D01*
Y20773D01*
X55452D01*
X52932Y23294D01*
X52636Y23492D01*
X52287Y23561D01*
X49867D01*
X49812Y23643D01*
X49356Y23948D01*
X48819Y24055D01*
D02*
G37*
G36*
X40894Y77666D02*
X37744D01*
X37443Y77542D01*
X37318Y77240D01*
Y74484D01*
X37443Y74183D01*
X37744Y74058D01*
X38408D01*
Y72618D01*
X38477Y72269D01*
X38675Y71974D01*
X52908Y57741D01*
Y50421D01*
X52730Y50276D01*
X52230Y50514D01*
Y57118D01*
X52161Y57467D01*
X51963Y57762D01*
X40463Y69262D01*
X40168Y69460D01*
X39819Y69529D01*
X33379D01*
Y70193D01*
X33254Y70494D01*
X32953Y70619D01*
X30197D01*
X29895Y70494D01*
X29771Y70193D01*
Y67043D01*
X29895Y66742D01*
X30197Y66617D01*
X32953D01*
X33254Y66742D01*
X33379Y67043D01*
Y67707D01*
X39441D01*
X42166Y64983D01*
X41919Y64522D01*
X41819Y64542D01*
Y63118D01*
X43243D01*
X43223Y63219D01*
X43683Y63465D01*
X50408Y56741D01*
Y47618D01*
X50477Y47269D01*
X50675Y46974D01*
X51675Y45974D01*
X51970Y45776D01*
X52319Y45707D01*
X52771D01*
X52825Y45625D01*
X53281Y45320D01*
X53819Y45213D01*
X54167Y45282D01*
X54182Y45275D01*
X54547Y44917D01*
X54559Y44890D01*
X54530Y44740D01*
Y43289D01*
X54448Y43234D01*
X54335Y43065D01*
X54318Y43050D01*
X53707Y42933D01*
X53694Y42938D01*
X53449Y43102D01*
X52835Y43224D01*
X47323D01*
X46708Y43102D01*
X46187Y42753D01*
X45839Y42233D01*
X45717Y41618D01*
X45839Y41004D01*
X46187Y40483D01*
X46708Y40135D01*
X47323Y40012D01*
X52835D01*
X53449Y40135D01*
X53970Y40483D01*
X54120Y40707D01*
X54819D01*
X55168Y40776D01*
X55298Y40864D01*
X55441Y40835D01*
X55979Y40942D01*
X56388Y41216D01*
X56516Y41236D01*
X56943Y41183D01*
X57244Y41058D01*
X60394D01*
X60695Y41183D01*
X60820Y41484D01*
Y44240D01*
X60695Y44541D01*
X60394Y44666D01*
X57244D01*
X57110Y44611D01*
X56696Y44948D01*
X56730Y45118D01*
Y45581D01*
X57230Y45979D01*
X57244Y45976D01*
X58319D01*
Y48374D01*
Y50772D01*
X57244D01*
X57230Y50769D01*
X56730Y51167D01*
Y54070D01*
X56812Y54125D01*
X57117Y54580D01*
X57224Y55118D01*
X57117Y55656D01*
X56812Y56112D01*
X56730Y56166D01*
Y60570D01*
X56812Y60625D01*
X57117Y61080D01*
X57224Y61618D01*
X57117Y62156D01*
X56812Y62612D01*
X56357Y62916D01*
X55819Y63023D01*
X55281Y62916D01*
X54826Y62612D01*
X54521Y62156D01*
X54414Y61618D01*
X54521Y61080D01*
X54826Y60625D01*
X54908Y60570D01*
Y58997D01*
X54636Y58854D01*
X54408Y58818D01*
X40230Y72996D01*
Y74058D01*
X40894D01*
X41195Y74183D01*
X41320Y74484D01*
Y77240D01*
X41195Y77542D01*
X40894Y77666D01*
D02*
G37*
G36*
X41035Y86984D02*
X39612D01*
X39666Y86710D01*
X40105Y86054D01*
X40761Y85615D01*
X41035Y85561D01*
Y86984D01*
D02*
G37*
G36*
X43459D02*
X42035D01*
Y85561D01*
X42310Y85615D01*
X42966Y86054D01*
X43405Y86710D01*
X43459Y86984D01*
D02*
G37*
G36*
X21744D02*
X20320D01*
X20375Y86710D01*
X20813Y86054D01*
X21470Y85615D01*
X21744Y85561D01*
Y86984D01*
D02*
G37*
G36*
X24168D02*
X22744D01*
Y85561D01*
X23018Y85615D01*
X23675Y86054D01*
X24113Y86710D01*
X24168Y86984D01*
D02*
G37*
G36*
X21744Y89408D02*
X21470Y89353D01*
X20813Y88915D01*
X20375Y88258D01*
X20320Y87984D01*
X21744D01*
Y89408D01*
D02*
G37*
G36*
X42035D02*
Y87984D01*
X43459D01*
X43405Y88258D01*
X42966Y88915D01*
X42310Y89353D01*
X42035Y89408D01*
D02*
G37*
G36*
X32154Y100652D02*
X32133Y100643D01*
X32112Y100649D01*
X30954Y100536D01*
X30916Y100515D01*
X30872Y100519D01*
X29759Y100181D01*
X29725Y100154D01*
X29682Y100150D01*
X28656Y99601D01*
X28628Y99567D01*
X28586Y99555D01*
X27687Y98817D01*
X27667Y98778D01*
X27628Y98758D01*
X26890Y97859D01*
X26877Y97817D01*
X26844Y97789D01*
X26295Y96763D01*
X26291Y96720D01*
X26263Y96686D01*
X25926Y95573D01*
X25930Y95529D01*
X25909Y95491D01*
X25795Y94333D01*
X25808Y94291D01*
X25795Y94250D01*
X25909Y93092D01*
X25930Y93053D01*
X25926Y93010D01*
X26263Y91897D01*
X26291Y91863D01*
X26295Y91820D01*
X26844Y90794D01*
X26877Y90766D01*
X26890Y90724D01*
X27628Y89825D01*
X27667Y89804D01*
X27687Y89766D01*
X28586Y89028D01*
X28628Y89015D01*
X28656Y88981D01*
X29682Y88433D01*
X29725Y88429D01*
X29759Y88401D01*
X30872Y88064D01*
X30916Y88068D01*
X30954Y88047D01*
X32112Y87933D01*
X32133Y87940D01*
X32154Y87931D01*
X32174Y87940D01*
X32195Y87933D01*
X33353Y88047D01*
X33391Y88068D01*
X33435Y88064D01*
X34548Y88401D01*
X34582Y88429D01*
X34625Y88433D01*
X35651Y88981D01*
X35679Y89015D01*
X35721Y89028D01*
X36620Y89766D01*
X36641Y89804D01*
X36679Y89825D01*
X37417Y90724D01*
X37430Y90766D01*
X37463Y90794D01*
X38012Y91820D01*
X38016Y91863D01*
X38044Y91897D01*
X38381Y93010D01*
X38377Y93053D01*
X38398Y93092D01*
X38512Y94250D01*
X38499Y94291D01*
X38512Y94333D01*
X38398Y95491D01*
X38377Y95529D01*
X38381Y95573D01*
X38044Y96686D01*
X38016Y96720D01*
X38012Y96763D01*
X37463Y97789D01*
X37430Y97817D01*
X37417Y97859D01*
X36679Y98758D01*
X36641Y98778D01*
X36620Y98817D01*
X35721Y99555D01*
X35679Y99567D01*
X35651Y99601D01*
X34625Y100150D01*
X34582Y100154D01*
X34548Y100181D01*
X33435Y100519D01*
X33391Y100515D01*
X33353Y100536D01*
X32195Y100649D01*
X32174Y100643D01*
X32154Y100652D01*
D02*
G37*
G36*
X22744Y89408D02*
Y87984D01*
X24168D01*
X24113Y88258D01*
X23675Y88915D01*
X23018Y89353D01*
X22744Y89408D01*
D02*
G37*
G36*
X41035D02*
X40761Y89353D01*
X40105Y88915D01*
X39666Y88258D01*
X39612Y87984D01*
X41035D01*
Y89408D01*
D02*
G37*
G36*
X40819Y62118D02*
X39395D01*
X39450Y61844D01*
X39888Y61187D01*
X40545Y60749D01*
X40819Y60694D01*
Y62118D01*
D02*
G37*
G36*
X43243D02*
X41819D01*
Y60694D01*
X42093Y60749D01*
X42750Y61187D01*
X43188Y61844D01*
X43243Y62118D01*
D02*
G37*
G36*
X45602Y57269D02*
X41665D01*
X41364Y57144D01*
X41239Y56842D01*
Y54874D01*
X41364Y54573D01*
X41665Y54448D01*
X42606D01*
X42687Y54349D01*
X42587Y53681D01*
X42388Y53549D01*
X41950Y52892D01*
X41895Y52618D01*
X45743D01*
X45688Y52892D01*
X45250Y53549D01*
X45051Y53681D01*
X44951Y54349D01*
X45032Y54448D01*
X45602D01*
X45904Y54573D01*
X46029Y54874D01*
Y56842D01*
X45904Y57144D01*
X45602Y57269D01*
D02*
G37*
G36*
X18213Y58118D02*
X9819D01*
Y53662D01*
X17193D01*
X17583Y53739D01*
X17914Y53960D01*
X18135Y54291D01*
X18213Y54681D01*
Y58118D01*
D02*
G37*
G36*
X40819Y64542D02*
X40545Y64487D01*
X39888Y64049D01*
X39450Y63392D01*
X39395Y63118D01*
X40819D01*
Y64542D01*
D02*
G37*
G36*
X28319Y86937D02*
X27638D01*
X27248Y86859D01*
X26917Y86638D01*
X26696Y86308D01*
X26618Y85917D01*
Y84646D01*
X28319D01*
Y86937D01*
D02*
G37*
G36*
X30000D02*
X29319D01*
Y84646D01*
X31020D01*
Y85917D01*
X30942Y86308D01*
X30721Y86638D01*
X30390Y86859D01*
X30000Y86937D01*
D02*
G37*
G36*
X28319Y83646D02*
X26618D01*
Y82374D01*
X26696Y81984D01*
X26917Y81653D01*
X27248Y81432D01*
X27638Y81354D01*
X28319D01*
Y83646D01*
D02*
G37*
G36*
X31020D02*
X29319D01*
Y81354D01*
X30000D01*
X30390Y81432D01*
X30721Y81653D01*
X30942Y81984D01*
X31020Y82374D01*
Y83646D01*
D02*
G37*
%LPD*%
D10*
X16366Y9138D02*
D03*
X27272D02*
D03*
X38177D02*
D03*
X49083D02*
D03*
D14*
X31575Y68618D02*
D03*
X26063D02*
D03*
D15*
X39319Y75862D02*
D03*
Y81374D02*
D03*
X27319Y49362D02*
D03*
Y54874D02*
D03*
X58819Y42862D02*
D03*
Y48374D02*
D03*
Y36874D02*
D03*
Y31362D02*
D03*
Y25374D02*
D03*
Y19862D02*
D03*
D20*
X23382Y36618D02*
X28819D01*
X23382Y45425D02*
X27319Y49362D01*
X27563D01*
X30319Y52118D01*
X33004D01*
X35819Y39118D02*
X38819Y42118D01*
Y58118D01*
X28819Y26618D02*
X31819D01*
X35819Y30618D01*
Y39118D01*
X33819Y63118D02*
X38819Y58118D01*
X30319Y63118D02*
X33819D01*
X32539Y60898D02*
X36819Y56618D01*
X32079Y55858D02*
X33004D01*
X29819Y58118D02*
X32079Y55858D01*
X23819Y58118D02*
X29819D01*
X23819Y48618D02*
Y58118D01*
X9319Y48618D02*
X15819D01*
X9319Y38618D02*
X13319D01*
X19819Y45118D01*
Y48118D01*
X21819Y50118D01*
X53819Y49118D02*
Y58118D01*
X39319Y72618D02*
X53819Y58118D01*
X39319Y72618D02*
Y75862D01*
X52319Y46618D02*
X53819D01*
X51319Y47618D02*
X52319Y46618D01*
X51319Y47618D02*
Y57118D01*
X31575Y68618D02*
X39819D01*
X44319Y31618D02*
X50079D01*
X46319Y36618D02*
X50079D01*
X21819Y50118D02*
Y59118D01*
X26063Y63362D01*
Y68618D01*
X15819Y48618D02*
X19819Y52618D01*
Y60118D01*
X28819Y41618D02*
X31819D01*
X36819Y46618D01*
Y56618D01*
X33004Y45803D02*
Y48378D01*
X50079Y41618D02*
X54819D01*
X56063Y42862D02*
X58819D01*
X23382Y33181D02*
Y45425D01*
X9319Y28618D02*
X18819D01*
X23382Y33181D01*
X20319Y33118D02*
Y35618D01*
X9319Y58618D02*
X13819D01*
X27319Y52118D02*
Y54874D01*
X42319Y26118D02*
X44819D01*
X45319Y26618D01*
X50079D02*
X54819D01*
X56063Y25374D01*
X58819D01*
X50335Y36874D02*
X58819D01*
X50079Y36618D02*
X50335Y36874D01*
X50079Y31618D02*
X58563D01*
X58819Y31362D01*
X54819Y41618D02*
X55441Y42240D01*
X56063Y42862D01*
X20319Y35618D02*
X21819Y37118D01*
Y46618D01*
X23819Y48618D01*
X55441Y42240D02*
Y44740D01*
X55819Y45118D01*
Y55118D01*
X26063Y68618D02*
X32535Y75090D01*
X32559D01*
X37063Y79118D02*
X39319Y81374D01*
X19819Y60118D02*
X23319Y63618D01*
Y70618D01*
X25079Y72378D01*
Y75090D01*
X27291D01*
X31319Y79118D01*
X37063D01*
X55819Y55118D02*
Y61618D01*
X45319Y26618D02*
X50079D01*
X48819Y22650D02*
X52287D01*
X55075Y19862D01*
X58819D01*
X39819Y68618D02*
X51319Y57118D01*
X28819Y31618D02*
X31319D01*
X33819Y34118D01*
X32319Y22618D02*
X46319Y36618D01*
X27819Y22618D02*
X32319D01*
X27272Y14571D02*
X44319Y31618D01*
X27272Y9138D02*
Y14571D01*
D21*
X32154Y94291D02*
D03*
D22*
X39567Y34118D02*
D03*
X41535Y87484D02*
D03*
X22244D02*
D03*
X30319Y63118D02*
D03*
X32539Y60898D02*
D03*
X23819Y58118D02*
D03*
X53819Y49118D02*
D03*
Y46618D02*
D03*
X33819Y34118D02*
D03*
X33004Y45803D02*
D03*
X20319Y33118D02*
D03*
X27319Y52118D02*
D03*
X42319Y26118D02*
D03*
X55441Y42240D02*
D03*
X55819Y55118D02*
D03*
Y61618D02*
D03*
X48819Y22650D02*
D03*
X41319Y62618D02*
D03*
X3319Y17118D02*
D03*
Y13118D02*
D03*
X43819Y52118D02*
D03*
X27819Y22618D02*
D03*
X62402Y37091D02*
D03*
D23*
X28819Y26618D02*
D03*
D24*
Y41618D02*
D03*
Y31618D02*
D03*
Y36618D02*
D03*
X50079Y31618D02*
D03*
Y41618D02*
D03*
Y26618D02*
D03*
Y36618D02*
D03*
D25*
X32559Y75090D02*
D03*
X25079D02*
D03*
X28819Y84146D02*
D03*
D26*
X33004Y48378D02*
D03*
Y52118D02*
D03*
Y55858D02*
D03*
X43634D02*
D03*
Y48378D02*
D03*
D27*
X9319Y28618D02*
D03*
Y38618D02*
D03*
Y48618D02*
D03*
D28*
Y58618D02*
D03*
M02*
