G04 Layer_Color=65535*
%FSLAX25Y25*%
%MOIN*%
G70*
G01*
G75*
%ADD29C,0.00984*%
%ADD30C,0.00394*%
%ADD31C,0.00787*%
D29*
X21024Y57980D02*
G03*
X21024Y57980I-492J0D01*
G01*
D30*
X1945Y59366D02*
X17693D01*
X1945Y27870D02*
Y59366D01*
Y27870D02*
X17693D01*
Y59366D01*
X21898Y80256D02*
Y84980D01*
Y80256D02*
X31740D01*
Y84980D01*
X21898D02*
X31740D01*
X21898Y74256D02*
Y78980D01*
Y74256D02*
X31740D01*
Y78980D01*
X21898D02*
X31740D01*
X31957Y72539D02*
X36681D01*
X31957Y62697D02*
Y72539D01*
Y62697D02*
X36681D01*
Y72539D01*
X4898Y22756D02*
Y27480D01*
Y22756D02*
X14740D01*
Y27480D01*
X4898D02*
X14740D01*
X51740Y60256D02*
Y64980D01*
X41898D02*
X51740D01*
X41898Y60256D02*
Y64980D01*
Y60256D02*
X51740D01*
X53740Y22756D02*
Y27480D01*
X43898D02*
X53740D01*
X43898Y22756D02*
Y27480D01*
Y22756D02*
X53740D01*
X16898D02*
Y27480D01*
Y22756D02*
X26740D01*
Y27480D01*
X16898D02*
X26740D01*
X16898Y60256D02*
Y64980D01*
Y60256D02*
X26740D01*
Y64980D01*
X16898D02*
X26740D01*
X44291Y98818D02*
Y101966D01*
X45866D01*
X46390Y101442D01*
Y100392D01*
X45866Y99867D01*
X44291D01*
X45341D02*
X46390Y98818D01*
X49014D02*
X47965D01*
X47440Y99342D01*
Y100392D01*
X47965Y100917D01*
X49014D01*
X49539Y100392D01*
Y99867D01*
X47440D01*
X50589Y100917D02*
X51638Y98818D01*
X52688Y100917D01*
X53737Y98818D02*
Y99342D01*
X54262D01*
Y98818D01*
X53737D01*
X56361D02*
X57411D01*
X56886D01*
Y101966D01*
X56361Y101442D01*
X58985Y98818D02*
Y100917D01*
X60034Y101966D01*
X61084Y100917D01*
Y98818D01*
Y100392D01*
X58985D01*
X44291Y96718D02*
X44816Y97243D01*
X45866D01*
X46390Y96718D01*
Y94619D01*
X45866Y94095D01*
X44816D01*
X44291Y94619D01*
Y96718D01*
X47440Y94095D02*
X48489D01*
X47965D01*
Y97243D01*
X47440Y96718D01*
X52163Y94095D02*
X50064D01*
X52163Y96194D01*
Y96718D01*
X51638Y97243D01*
X50589D01*
X50064Y96718D01*
X53212D02*
X53737Y97243D01*
X54787D01*
X55311Y96718D01*
Y94619D01*
X54787Y94095D01*
X53737D01*
X53212Y94619D01*
Y96718D01*
X16275Y91339D02*
X15750Y91863D01*
Y92913D01*
X16275Y93438D01*
X16800D01*
X17325Y92913D01*
Y92388D01*
Y92913D01*
X17849Y93438D01*
X18374D01*
X18899Y92913D01*
Y91863D01*
X18374Y91339D01*
X15750Y94487D02*
X17849D01*
X18899Y95537D01*
X17849Y96586D01*
X15750D01*
X16275Y97636D02*
X15750Y98160D01*
Y99210D01*
X16275Y99735D01*
X16800D01*
X17325Y99210D01*
Y98685D01*
Y99210D01*
X17849Y99735D01*
X18374D01*
X18899Y99210D01*
Y98160D01*
X18374Y97636D01*
X20473Y91339D02*
X23622D01*
Y92913D01*
X23097Y93438D01*
X22572D01*
X22048Y92913D01*
Y91339D01*
Y92913D01*
X21523Y93438D01*
X20998D01*
X20473Y92913D01*
Y91339D01*
Y96061D02*
Y95012D01*
X20998Y94487D01*
X23097D01*
X23622Y95012D01*
Y96061D01*
X23097Y96586D01*
X20998D01*
X20473Y96061D01*
Y99210D02*
Y98160D01*
X20998Y97636D01*
X23097D01*
X23622Y98160D01*
Y99210D01*
X23097Y99735D01*
X20998D01*
X20473Y99210D01*
Y100784D02*
Y102883D01*
Y101834D01*
X23622D01*
X54921Y40219D02*
X55446Y40743D01*
X56496D01*
X57020Y40219D01*
Y39694D01*
X56496Y39169D01*
X55971D01*
X56496D01*
X57020Y38644D01*
Y38120D01*
X56496Y37595D01*
X55446D01*
X54921Y38120D01*
X58070Y40743D02*
Y38644D01*
X59119Y37595D01*
X60169Y38644D01*
Y40743D01*
X61218Y40219D02*
X61743Y40743D01*
X62793D01*
X63318Y40219D01*
Y39694D01*
X62793Y39169D01*
X62268D01*
X62793D01*
X63318Y38644D01*
Y38120D01*
X62793Y37595D01*
X61743D01*
X61218Y38120D01*
X57020Y35495D02*
X56496Y36020D01*
X55446D01*
X54921Y35495D01*
Y34971D01*
X55446Y34446D01*
X56496D01*
X57020Y33921D01*
Y33396D01*
X56496Y32872D01*
X55446D01*
X54921Y33396D01*
X58070Y36020D02*
Y32872D01*
X59119Y33921D01*
X60169Y32872D01*
Y36020D01*
X63318Y35495D02*
X62793Y36020D01*
X61743D01*
X61218Y35495D01*
Y33396D01*
X61743Y32872D01*
X62793D01*
X63318Y33396D01*
X57020Y30772D02*
X56496Y31297D01*
X55446D01*
X54921Y30772D01*
Y28673D01*
X55446Y28148D01*
X56496D01*
X57020Y28673D01*
Y29723D01*
X55971D01*
X58070Y28148D02*
Y31297D01*
X60169Y28148D01*
Y31297D01*
X61218D02*
Y28148D01*
X62793D01*
X63318Y28673D01*
Y30772D01*
X62793Y31297D01*
X61218D01*
X57020Y26049D02*
X56496Y26574D01*
X55446D01*
X54921Y26049D01*
Y25524D01*
X55446Y24999D01*
X56496D01*
X57020Y24475D01*
Y23950D01*
X56496Y23425D01*
X55446D01*
X54921Y23950D01*
X58070Y26574D02*
Y23425D01*
X59119Y24475D01*
X60169Y23425D01*
Y26574D01*
X61218D02*
Y23425D01*
X62793D01*
X63318Y23950D01*
Y26049D01*
X62793Y26574D01*
X61218D01*
D31*
X42437Y80650D02*
Y84587D01*
Y74650D02*
Y78587D01*
X23091Y29831D02*
X24567D01*
X23091D02*
Y31307D01*
X50354Y29831D02*
X51831D01*
Y31307D01*
Y57095D02*
Y58571D01*
X50354D02*
X51831D01*
X23091D02*
X24567D01*
X23091Y57095D02*
Y58571D01*
M02*
