G04 Layer_Color=16711935*
%FSLAX25Y25*%
%MOIN*%
G70*
G01*
G75*
%ADD32O,0.08674X0.17335*%
%ADD36R,0.03556X0.03950*%
%ADD37R,0.03950X0.03556*%
%ADD42C,0.12611*%
%ADD43R,0.08674X0.03162*%
%ADD44O,0.08674X0.03162*%
%ADD45R,0.03162X0.04343*%
%ADD46R,0.04737X0.02768*%
%ADD47O,0.16548X0.08674*%
%ADD48R,0.16548X0.08674*%
D32*
X16366Y9138D02*
D03*
X27272D02*
D03*
X38177D02*
D03*
X49083D02*
D03*
D36*
X31575Y68618D02*
D03*
X26063D02*
D03*
D37*
X39319Y75862D02*
D03*
Y81374D02*
D03*
X27319Y49362D02*
D03*
Y54874D02*
D03*
X58819Y42862D02*
D03*
Y48374D02*
D03*
Y36874D02*
D03*
Y31362D02*
D03*
Y25374D02*
D03*
Y19862D02*
D03*
D42*
X32154Y94291D02*
D03*
D43*
X28819Y26618D02*
D03*
D44*
Y41618D02*
D03*
Y31618D02*
D03*
Y36618D02*
D03*
X50079Y31618D02*
D03*
Y41618D02*
D03*
Y26618D02*
D03*
Y36618D02*
D03*
D45*
X32559Y75090D02*
D03*
X25079D02*
D03*
X28819Y84146D02*
D03*
D46*
X33004Y48378D02*
D03*
Y52118D02*
D03*
Y55858D02*
D03*
X43634D02*
D03*
Y48378D02*
D03*
D47*
X9319Y28618D02*
D03*
Y38618D02*
D03*
Y48618D02*
D03*
D48*
Y58618D02*
D03*
M02*
