G04 Layer_Color=16711935*
%FSLAX25Y25*%
%MOIN*%
G70*
G01*
G75*
%ADD30C,0.00394*%
D30*
X55199Y64522D02*
X57584Y64403D01*
X52873Y65063D02*
X55199Y64522D01*
X50681Y66010D02*
X52873Y65063D01*
X48692Y67332D02*
X50681Y66010D01*
X46971Y68987D02*
X48692Y67332D01*
X45571Y70922D02*
X46971Y68987D01*
X44538Y73075D02*
X45571Y70922D01*
X43905Y75377D02*
X44538Y73075D01*
X43691Y77756D02*
X43905Y75377D01*
X43691Y77756D02*
X43905Y80134D01*
X44538Y82437D01*
X45571Y84590D01*
X46971Y86525D01*
X48692Y88180D01*
X50681Y89502D01*
X52873Y90449D01*
X55199Y90990D01*
X57584Y91109D01*
X-32Y105118D02*
X64339D01*
X-32Y91028D02*
Y105118D01*
X8948Y91028D02*
X11434Y90449D01*
X13626Y89502D01*
X15615Y88180D01*
X17336Y86525D01*
X18736Y84590D01*
X19769Y82437D01*
X20403Y80134D01*
X20616Y77756D01*
X20403Y75377D02*
X20616Y77756D01*
X19769Y73075D02*
X20403Y75377D01*
X18736Y70922D02*
X19769Y73075D01*
X17336Y68987D02*
X18736Y70922D01*
X15615Y67332D02*
X17336Y68987D01*
X13626Y66010D02*
X15615Y67332D01*
X11434Y65063D02*
X13626Y66010D01*
X9108Y64522D02*
X11434Y65063D01*
X6723Y64403D02*
X9108Y64522D01*
X-32Y0D02*
X64339D01*
Y64462D01*
X57584Y64403D02*
X64279D01*
X28D02*
X6723D01*
X-32Y0D02*
Y64403D01*
X1048D01*
X64339Y91028D02*
Y105118D01*
X63178Y91028D02*
X64339D01*
X56496D02*
X64339D01*
X-32D02*
X7249D01*
X8948D01*
M02*
