G04 Layer_Color=8388736*
%FSLAX25Y25*%
%MOIN*%
G70*
G01*
G75*
%ADD32O,0.08674X0.17335*%
%ADD33R,0.08674X0.17335*%
%ADD34C,0.04737*%
%ADD35R,0.14186X0.06312*%
%ADD36R,0.03556X0.03950*%
%ADD37R,0.03950X0.03556*%
%ADD38R,0.23635X0.23635*%
%ADD39O,0.01784X0.03556*%
%ADD40O,0.03556X0.01784*%
%ADD41R,0.03556X0.01784*%
%ADD42C,0.12611*%
D32*
X54535Y9138D02*
D03*
X21819D02*
D03*
X32724D02*
D03*
X43630D02*
D03*
D33*
X10913D02*
D03*
D34*
X27319Y68618D02*
D03*
X22319D02*
D03*
X60819Y44118D02*
D03*
Y49118D02*
D03*
Y59118D02*
D03*
Y54118D02*
D03*
D35*
X9819Y33776D02*
D03*
Y43618D02*
D03*
Y53461D02*
D03*
D36*
X24063Y82618D02*
D03*
X29575D02*
D03*
X24063Y76618D02*
D03*
X29575D02*
D03*
X7063Y25118D02*
D03*
X12575D02*
D03*
X40075Y82618D02*
D03*
X34563D02*
D03*
X40075Y76618D02*
D03*
X34563D02*
D03*
X49575Y62618D02*
D03*
X44063D02*
D03*
X51575Y25118D02*
D03*
X46063D02*
D03*
X19063D02*
D03*
X24575D02*
D03*
X19063Y62618D02*
D03*
X24575D02*
D03*
D37*
X34319Y70374D02*
D03*
Y64862D02*
D03*
D38*
X37461Y44201D02*
D03*
D39*
X26634Y57784D02*
D03*
X28602D02*
D03*
X30571D02*
D03*
X32539D02*
D03*
X34508D02*
D03*
X36476D02*
D03*
X38445D02*
D03*
X40413D02*
D03*
X42382D02*
D03*
X44350D02*
D03*
X46319D02*
D03*
X48287D02*
D03*
Y30618D02*
D03*
X46319D02*
D03*
X44350D02*
D03*
X42382D02*
D03*
X40413D02*
D03*
X38445D02*
D03*
X36476D02*
D03*
X34508D02*
D03*
X32539D02*
D03*
X30571D02*
D03*
X28602D02*
D03*
X26634D02*
D03*
D40*
X51043Y55028D02*
D03*
Y53059D02*
D03*
Y51091D02*
D03*
Y49122D02*
D03*
Y47153D02*
D03*
Y45185D02*
D03*
Y43216D02*
D03*
Y41248D02*
D03*
Y39279D02*
D03*
Y37311D02*
D03*
Y35342D02*
D03*
Y33374D02*
D03*
X23878D02*
D03*
Y35342D02*
D03*
Y37311D02*
D03*
Y39279D02*
D03*
Y41248D02*
D03*
Y43216D02*
D03*
Y45185D02*
D03*
Y47153D02*
D03*
Y49122D02*
D03*
Y51091D02*
D03*
Y53059D02*
D03*
D41*
Y55028D02*
D03*
D42*
X32154Y94291D02*
D03*
M02*
