G04 Layer_Color=32896*
%FSLAX25Y25*%
%MOIN*%
G70*
G01*
G75*
%ADD29C,0.00984*%
%ADD30C,0.00394*%
%ADD31C,0.00787*%
D29*
X33012Y79618D02*
G03*
X33012Y79618I-492J0D01*
G01*
X33496Y45228D02*
G03*
X33496Y45228I-492J0D01*
G01*
X18374Y23618D02*
Y63618D01*
X264Y23618D02*
X18374D01*
X264D02*
Y63618D01*
X18374D01*
D30*
X36957Y73697D02*
X41681D01*
X36957D02*
Y83539D01*
X41681D01*
Y73697D02*
Y83539D01*
X33740Y66256D02*
Y70980D01*
X23898Y66256D02*
X33740D01*
X23898D02*
Y70980D01*
X33740D01*
X24957Y47197D02*
X29681D01*
X24957D02*
Y57039D01*
X29681D01*
Y47197D02*
Y57039D01*
X56457Y40697D02*
X61181D01*
X56457D02*
Y50539D01*
X61181D01*
Y40697D02*
Y50539D01*
X56457Y39039D02*
X61181D01*
Y29197D02*
Y39039D01*
X56457Y29197D02*
X61181D01*
X56457D02*
Y39039D01*
Y27539D02*
X61181D01*
Y17697D02*
Y27539D01*
X56457Y17697D02*
X61181D01*
X56457D02*
Y27539D01*
X1772Y5021D02*
X3871D01*
X2821Y3972D02*
Y6071D01*
X7019Y3447D02*
X4920D01*
Y5021D01*
X5970Y4497D01*
X6494D01*
X7019Y5021D01*
Y6071D01*
X6494Y6596D01*
X5445D01*
X4920Y6071D01*
X8069Y3447D02*
Y5546D01*
X9118Y6596D01*
X10168Y5546D01*
Y3447D01*
X1772Y8170D02*
Y11319D01*
X3346D01*
X3871Y10794D01*
Y8695D01*
X3346Y8170D01*
X1772D01*
X4920Y9745D02*
X7019D01*
X1772Y12894D02*
Y16042D01*
X3346D01*
X3871Y15517D01*
Y13418D01*
X3346Y12894D01*
X1772D01*
X4920Y14468D02*
X7019D01*
X5970Y13418D02*
Y15517D01*
X3871Y18142D02*
X3346Y17617D01*
X2296D01*
X1772Y18142D01*
Y20241D01*
X2296Y20765D01*
X3346D01*
X3871Y20241D01*
Y19191D01*
X2821D01*
X4920Y20765D02*
Y17617D01*
X7019Y20765D01*
Y17617D01*
X8069D02*
Y20765D01*
X9643D01*
X10168Y20241D01*
Y18142D01*
X9643Y17617D01*
X8069D01*
D31*
X40699Y24118D02*
G03*
X38199Y24118I-1250J0D01*
G01*
X36043D02*
Y44118D01*
X42854D01*
Y24118D02*
Y44118D01*
X40699Y24118D02*
X42854D01*
X36043D02*
X38199D01*
X34724Y78437D02*
Y82374D01*
X31575D02*
X34724D01*
X22913Y78437D02*
Y82374D01*
X26063D01*
X36547Y46016D02*
X40091D01*
X36547Y58220D02*
X40091D01*
X36547Y46016D02*
Y58220D01*
X40091Y46016D02*
Y58220D01*
M02*
