M48
;Layer_Color=9474304
;FILE_FORMAT=2:5
INCH,LZ
;TYPE=PLATED
T2F00S00C0.01181
;TYPE=NON_PLATED
T1F00S00C0.11811
%
T02
X0003319Y0013118
Y0017118
X0027819Y0022618
X0048819Y002265
X0042319Y0026118
X0039567Y0034118
X0043819Y0052118
X0053819Y0049118
Y0046618
X0055441Y004224
X0062402Y0037091
X0055819Y0055118
Y0061618
X0041319Y0062618
X0041535Y0087484
X0022244
X0023819Y0058118
X0027319Y0052118
X0033004Y0045803
X0033819Y0034118
X0020319Y0033118
X0030319Y0063118
X0032539Y0060898
T01
X0032154Y0094291
M30
